<?xml version="1.0" encoding="UTF-8"?>
<svg id="Capa_1" xmlns="http://www.w3.org/2000/svg" version="1.1" viewBox="0 0 190 60">
  
  <defs>
    
  </defs>
  <path fill="#ffffff" d="M1,59.24V.76h12.55v45.93h37.8v12.55H1Z"></path>
  <path fill="#ffffff" d="M57.65,59.24V.76h43.03c11.82,0,19.71,5.15,19.71,15.28,0,7.08-3.46,10.54-6.76,12.07,4.42,1.85,7.88,6.43,7.88,12.55,0,11.58-7.8,18.58-19.3,18.58h-44.56ZM77.44,34.46v-9.89h23.49c4.58,0,6.68-1.85,6.68-5.63,0-4.34-3.22-5.71-8.61-5.71h-28.8v33.54h29.76c5.31,0,8.77-1.93,8.77-6.19,0-3.86-2.41-6.11-6.92-6.11h-24.37Z"></path>
  <path fill="#ffffff" d="M125.94,59.24v-12.55h44.16c4.5,0,7.08-2.33,7.08-6.03,0-3.94-2.57-6.19-7.08-6.19h-26.46c-11.5,0-18.58-6.92-18.58-16.81S131.65.76,143.8.76h42.31v12.55h-42.31c-3.54,0-5.71,2.01-5.71,5.63s2.25,5.63,5.71,5.63h26.3c12.31,0,18.9,5.47,18.9,17.13,0,10.05-6.19,17.53-18.9,17.53h-44.16Z"></path>
</svg>